<svg width="24" height="20" viewBox="0 0 24 20" fill="none" xmlns="http://www.w3.org/2000/svg">
<path d="M18.75 9.25C18.75 9.54667 18.662 9.83668 18.4972 10.0834C18.3324 10.33 18.0981 10.5223 17.824 10.6358C17.5499 10.7494 17.2483 10.7791 16.9574 10.7212C16.6664 10.6633 16.3991 10.5204 16.1893 10.3107C15.9796 10.1009 15.8367 9.83361 15.7788 9.54263C15.7209 9.25166 15.7506 8.95006 15.8642 8.67597C15.9777 8.40189 16.17 8.16762 16.4166 8.0028C16.6633 7.83797 16.9533 7.75 17.25 7.75C17.6478 7.75 18.0294 7.90804 18.3107 8.18934C18.592 8.47064 18.75 8.85218 18.75 9.25ZM14.625 4H10.875C10.5766 4 10.2905 4.11853 10.0795 4.3295C9.86853 4.54048 9.75 4.82663 9.75 5.125C9.75 5.42337 9.86853 5.70952 10.0795 5.9205C10.2905 6.13147 10.5766 6.25 10.875 6.25H14.625C14.9234 6.25 15.2095 6.13147 15.4205 5.9205C15.6315 5.70952 15.75 5.42337 15.75 5.125C15.75 4.82663 15.6315 4.54048 15.4205 4.3295C15.2095 4.11853 14.9234 4 14.625 4ZM24 8.5V11.5C24.0001 12.1888 23.7295 12.85 23.2465 13.3411C22.7635 13.8321 22.1068 14.1137 21.4181 14.125L19.9875 18.1309C19.8574 18.4951 19.6178 18.8102 19.3016 19.0329C18.9854 19.2556 18.608 19.3751 18.2213 19.375H17.0287C16.642 19.3751 16.2646 19.2556 15.9484 19.0329C15.6322 18.8102 15.3926 18.4951 15.2625 18.1309L15.1688 17.875H10.3284L10.2347 18.1309C10.1047 18.4947 9.86554 18.8094 9.5499 19.0321C9.23425 19.2548 8.85754 19.3745 8.47125 19.375H7.27875C6.89198 19.3751 6.51464 19.2556 6.19844 19.0329C5.88224 18.8102 5.64265 18.4951 5.5125 18.1309L4.35938 14.9012C3.37374 13.7668 2.70298 12.3936 2.41406 10.9188C2.30702 11.0938 2.25025 11.2949 2.25 11.5C2.25 11.7984 2.13147 12.0845 1.9205 12.2955C1.70952 12.5065 1.42337 12.625 1.125 12.625C0.826631 12.625 0.540483 12.5065 0.329505 12.2955C0.118526 12.0845 0 11.7984 0 11.5C0.00106431 10.7929 0.223768 10.1039 0.636786 9.52995C1.0498 8.95599 1.63236 8.52595 2.3025 8.30031C2.53885 6.19123 3.54343 4.24298 5.12457 2.82732C6.70571 1.41166 8.75272 0.627693 10.875 0.625H20.625C20.9234 0.625 21.2095 0.743526 21.4205 0.954505C21.6315 1.16548 21.75 1.45163 21.75 1.75C21.75 2.04837 21.6315 2.33452 21.4205 2.5455C21.2095 2.75647 20.9234 2.875 20.625 2.875H19.6875C20.5909 3.69746 21.3092 4.70246 21.795 5.82344L21.8344 5.91719C22.4407 6.02589 22.9896 6.34399 23.3854 6.81601C23.7812 7.28803 23.9987 7.88401 24 8.5ZM21.75 8.5C21.75 8.40054 21.7105 8.30516 21.6402 8.23483C21.5698 8.16451 21.4745 8.125 21.375 8.125H21.0319C20.7923 8.12499 20.559 8.04851 20.3659 7.9067C20.1729 7.76489 20.0301 7.56515 19.9584 7.33656C19.5512 6.0423 18.7416 4.91174 17.6475 4.10932C16.5534 3.3069 15.2318 2.8745 13.875 2.875H10.875C9.63779 2.87491 8.42728 3.23483 7.3911 3.91087C6.35492 4.58691 5.53784 5.54985 5.03952 6.68227C4.54119 7.81468 4.38315 9.06764 4.58466 10.2883C4.78617 11.509 5.33853 12.6447 6.17438 13.5569C6.2758 13.667 6.35393 13.7964 6.40406 13.9375L7.54313 17.125H8.20687L8.47594 16.375C8.55341 16.1559 8.69686 15.9661 8.88655 15.8318C9.07625 15.6975 9.30289 15.6253 9.53531 15.625H15.9647C16.1971 15.6253 16.4237 15.6975 16.6134 15.8318C16.8031 15.9661 16.9466 16.1559 17.0241 16.375L17.2931 17.125H17.9569L19.5656 12.625C19.6431 12.4059 19.7865 12.2161 19.9762 12.0818C20.1659 11.9475 20.3926 11.8753 20.625 11.875H21.375C21.4745 11.875 21.5698 11.8355 21.6402 11.7652C21.7105 11.6948 21.75 11.5995 21.75 11.5V8.5Z" fill="#333333"/>
</svg>
