<svg width="24" height="24" viewBox="0 0 24 24" fill="none" xmlns="http://www.w3.org/2000/svg">
<path d="M3 4C3 3.73478 3.10536 3.48043 3.29289 3.29289C3.48043 3.10536 3.73478 3 4 3H7C7.26522 3 7.51957 3.10536 7.70711 3.29289C7.89464 3.48043 8 3.73478 8 4V7C8 7.26522 7.89464 7.51957 7.70711 7.70711C7.51957 7.89464 7.26522 8 7 8H4C3.73478 8 3.48043 7.89464 3.29289 7.70711C3.10536 7.51957 3 7.26522 3 7V4ZM3 10.5C3 10.2348 3.10536 9.98043 3.29289 9.79289C3.48043 9.60536 3.73478 9.5 4 9.5H7C7.26522 9.5 7.51957 9.60536 7.70711 9.79289C7.89464 9.98043 8 10.2348 8 10.5V13.5C8 13.7652 7.89464 14.0196 7.70711 14.2071C7.51957 14.3946 7.26522 14.5 7 14.5H4C3.73478 14.5 3.48043 14.3946 3.29289 14.2071C3.10536 14.0196 3 13.7652 3 13.5V10.5ZM3 17C3 16.7348 3.10536 16.4804 3.29289 16.2929C3.48043 16.1054 3.73478 16 4 16H7C7.26522 16 7.51957 16.1054 7.70711 16.2929C7.89464 16.4804 8 16.7348 8 17V20C8 20.2652 7.89464 20.5196 7.70711 20.7071C7.51957 20.8946 7.26522 21 7 21H4C3.73478 21 3.48043 20.8946 3.29289 20.7071C3.10536 20.5196 3 20.2652 3 20V17ZM9.5 4C9.5 3.73478 9.60536 3.48043 9.79289 3.29289C9.98043 3.10536 10.2348 3 10.5 3H13.5C13.7652 3 14.0196 3.10536 14.2071 3.29289C14.3946 3.48043 14.5 3.73478 14.5 4V7C14.5 7.26522 14.3946 7.51957 14.2071 7.70711C14.0196 7.89464 13.7652 8 13.5 8H10.5C10.2348 8 9.98043 7.89464 9.79289 7.70711C9.60536 7.51957 9.5 7.26522 9.5 7V4ZM9.5 10.5C9.5 10.2348 9.60536 9.98043 9.79289 9.79289C9.98043 9.60536 10.2348 9.5 10.5 9.5H13.5C13.7652 9.5 14.0196 9.60536 14.2071 9.79289C14.3946 9.98043 14.5 10.2348 14.5 10.5V13.5C14.5 13.7652 14.3946 14.0196 14.2071 14.2071C14.0196 14.3946 13.7652 14.5 13.5 14.5H10.5C10.2348 14.5 9.98043 14.3946 9.79289 14.2071C9.60536 14.0196 9.5 13.7652 9.5 13.5V10.5ZM9.5 17C9.5 16.7348 9.60536 16.4804 9.79289 16.2929C9.98043 16.1054 10.2348 16 10.5 16H13.5C13.7652 16 14.0196 16.1054 14.2071 16.2929C14.3946 16.4804 14.5 16.7348 14.5 17V20C14.5 20.2652 14.3946 20.5196 14.2071 20.7071C14.0196 20.8946 13.7652 21 13.5 21H10.5C10.2348 21 9.98043 20.8946 9.79289 20.7071C9.60536 20.5196 9.5 20.2652 9.5 20V17ZM16 4C16 3.73478 16.1054 3.48043 16.2929 3.29289C16.4804 3.10536 16.7348 3 17 3H20C20.2652 3 20.5196 3.10536 20.7071 3.29289C20.8946 3.48043 21 3.73478 21 4V7C21 7.26522 20.8946 7.51957 20.7071 7.70711C20.5196 7.89464 20.2652 8 20 8H17C16.7348 8 16.4804 7.89464 16.2929 7.70711C16.1054 7.51957 16 7.26522 16 7V4ZM16 10.5C16 10.2348 16.1054 9.98043 16.2929 9.79289C16.4804 9.60536 16.7348 9.5 17 9.5H20C20.2652 9.5 20.5196 9.60536 20.7071 9.79289C20.8946 9.98043 21 10.2348 21 10.5V13.5C21 13.7652 20.8946 14.0196 20.7071 14.2071C20.5196 14.3946 20.2652 14.5 20 14.5H17C16.7348 14.5 16.4804 14.3946 16.2929 14.2071C16.1054 14.0196 16 13.7652 16 13.5V10.5ZM16 17C16 16.7348 16.1054 16.4804 16.2929 16.2929C16.4804 16.1054 16.7348 16 17 16H20C20.2652 16 20.5196 16.1054 20.7071 16.2929C20.8946 16.4804 21 16.7348 21 17V20C21 20.2652 20.8946 20.5196 20.7071 20.7071C20.5196 20.8946 20.2652 21 20 21H17C16.7348 21 16.4804 20.8946 16.2929 20.7071C16.1054 20.5196 16 20.2652 16 20V17Z" fill="#333333"/>
</svg>
