<svg width="24" height="24" viewBox="0 0 24 24" fill="none" xmlns="http://www.w3.org/2000/svg">
<path d="M8.4 14.65C8.55 14.25 8.67083 13.8292 8.7625 13.3875C8.85417 12.9458 8.9 12.4833 8.9 12C8.9 11.5167 8.85417 11.0542 8.7625 10.6125C8.67083 10.1708 8.55 9.75 8.4 9.35L6.55 10.1C6.65 10.4 6.73333 10.7083 6.8 11.025C6.86667 11.3417 6.9 11.6667 6.9 12C6.9 12.3333 6.86667 12.6583 6.8 12.975C6.73333 13.2917 6.65 13.6 6.55 13.9L8.4 14.65ZM11.6 16C11.8833 15.3667 12.0875 14.7167 12.2125 14.05C12.3375 13.3833 12.4 12.7 12.4 12C12.4 11.3 12.3375 10.6167 12.2125 9.95C12.0875 9.28333 11.8833 8.63333 11.6 8L9.75 8.75C9.98333 9.25 10.15 9.77083 10.25 10.3125C10.35 10.8542 10.4 11.4167 10.4 12C10.4 12.5833 10.35 13.1458 10.25 13.6875C10.15 14.2292 9.98333 14.75 9.75 15.25L11.6 16ZM14.85 17.35C15.2 16.5167 15.4625 15.6542 15.6375 14.7625C15.8125 13.8708 15.9 12.95 15.9 12C15.9 11.05 15.8125 10.1292 15.6375 9.2375C15.4625 8.34583 15.2 7.48333 14.85 6.65L13 7.45C13.3 8.15 13.525 8.88333 13.675 9.65C13.825 10.4167 13.9 11.2 13.9 12C13.9 12.8 13.825 13.5833 13.675 14.35C13.525 15.1167 13.3 15.85 13 16.55L14.85 17.35ZM12 22C10.6167 22 9.31667 21.7375 8.1 21.2125C6.88333 20.6875 5.825 19.975 4.925 19.075C4.025 18.175 3.3125 17.1167 2.7875 15.9C2.2625 14.6833 2 13.3833 2 12C2 10.6167 2.2625 9.31667 2.7875 8.1C3.3125 6.88333 4.025 5.825 4.925 4.925C5.825 4.025 6.88333 3.3125 8.1 2.7875C9.31667 2.2625 10.6167 2 12 2C13.3833 2 14.6833 2.2625 15.9 2.7875C17.1167 3.3125 18.175 4.025 19.075 4.925C19.975 5.825 20.6875 6.88333 21.2125 8.1C21.7375 9.31667 22 10.6167 22 12C22 13.3833 21.7375 14.6833 21.2125 15.9C20.6875 17.1167 19.975 18.175 19.075 19.075C18.175 19.975 17.1167 20.6875 15.9 21.2125C14.6833 21.7375 13.3833 22 12 22ZM12 20C14.2333 20 16.125 19.225 17.675 17.675C19.225 16.125 20 14.2333 20 12C20 9.76667 19.225 7.875 17.675 6.325C16.125 4.775 14.2333 4 12 4C9.76667 4 7.875 4.775 6.325 6.325C4.775 7.875 4 9.76667 4 12C4 14.2333 4.775 16.125 6.325 17.675C7.875 19.225 9.76667 20 12 20Z" fill="white"/>
</svg>
