<svg width="19" height="24" viewBox="0 0 19 24" fill="none" xmlns="http://www.w3.org/2000/svg">
<path d="M15.1779 10.5001V6.00004C15.1779 2.69246 12.4872 0 9.17798 0C5.86971 0 3.17805 2.69246 3.17805 6.00004V10.5001C1.52114 10.5001 0.177979 11.8434 0.177979 13.4999V20.9999C0.177979 22.6569 1.52114 24 3.17805 24H15.1779C16.8345 24 18.178 22.6569 18.178 20.9999V13.4999C18.178 11.8433 16.8345 10.5001 15.1779 10.5001ZM9.92804 17.7699V20.2499C9.92804 20.6645 9.59263 20.9999 9.17803 20.9999C8.76344 20.9999 8.42798 20.6645 8.42798 20.2499V17.7699C7.98776 17.5092 7.67807 17.0492 7.67807 16.5C7.67807 15.6708 8.34973 14.9999 9.17798 14.9999C10.0062 14.9999 10.678 15.6708 10.678 16.5C10.678 17.0492 10.368 17.5093 9.92804 17.7699ZM12.1779 10.5001H6.17802V6.00004C6.17802 4.34476 7.5234 2.99997 9.17798 2.99997C10.8318 2.99997 12.1778 4.34476 12.1778 6.00004V10.5001H12.1779Z" fill="#656565"/>
</svg>
