<svg width="40" height="40" viewBox="0 0 40 40" fill="none" xmlns="http://www.w3.org/2000/svg">
<circle cx="20" cy="20" r="20" fill="#F0B725"/>
<path d="M19 22.5C19 23.88 21.239 25 24 25C26.761 25 29 23.88 29 22.5M11 17.5C11 18.88 13.239 20 16 20C17.126 20 18.165 19.814 19 19.5M11 21C11 22.38 13.239 23.5 16 23.5C17.126 23.5 18.164 23.314 19 23M24 21C21.239 21 19 19.88 19 18.5C19 17.12 21.239 16 24 16C26.761 16 29 17.12 29 18.5C29 19.88 26.761 21 24 21Z" stroke="#191919" stroke-width="1.5" stroke-linecap="round" stroke-linejoin="round"/>
<path d="M11 13.5V24.5C11 25.88 13.239 27 16 27C17.126 27 18.164 26.814 19 26.5M19 26.5V18.5M19 26.5C19 27.88 21.239 29 24 29C26.761 29 29 27.88 29 26.5V18.5M21 16.5V13.5" stroke="#191919" stroke-width="1.5" stroke-linecap="round" stroke-linejoin="round"/>
<path d="M16 16C13.239 16 11 14.88 11 13.5C11 12.12 13.239 11 16 11C18.761 11 21 12.12 21 13.5C21 14.88 18.761 16 16 16Z" stroke="#191919" stroke-width="1.5" stroke-linecap="round" stroke-linejoin="round"/>
</svg>
