<svg width="22" height="22" viewBox="0 0 22 22" fill="none" xmlns="http://www.w3.org/2000/svg">
<path d="M11 14.333C12.105 14.333 13 13.587 13 12.667C13 11.747 12.105 11 11 11C9.895 11 9 10.254 9 9.333C9 8.413 9.895 7.667 11 7.667M11 14.333C9.895 14.333 9 13.587 9 12.667M11 14.333V15M11 7.667V7M11 7.667C12.105 7.667 13 8.413 13 9.333" stroke="#333333" stroke-width="2" stroke-linecap="round"/>
<path d="M16 2.33801C14.4805 1.45891 12.7555 0.997307 11 1.00001C5.477 1.00001 1 5.47701 1 11C1 12.6 1.376 14.112 2.043 15.453C2.221 15.809 2.28 16.216 2.177 16.601L1.582 18.827C1.52329 19.0472 1.52351 19.279 1.58264 19.4991C1.64177 19.7193 1.75773 19.92 1.91889 20.0811C2.08005 20.2423 2.28075 20.3582 2.50087 20.4174C2.72098 20.4765 2.95277 20.4767 3.173 20.418L5.399 19.823C5.78541 19.7258 6.19403 19.7731 6.548 19.956C7.93092 20.6446 9.45511 21.0021 11 21C16.523 21 21 16.523 21 11C21 9.17901 20.513 7.47001 19.662 6.00001" stroke="#333333" stroke-width="2" stroke-linecap="round"/>
</svg>
