<svg width="40" height="40" viewBox="0 0 40 40" fill="none" xmlns="http://www.w3.org/2000/svg">
<circle cx="20" cy="20" r="20" fill="#5CEC59"/>
<path d="M12 28C11.45 28 10.979 27.804 10.587 27.412C10.195 27.02 9.99934 26.5493 10 26V14C10 13.45 10.196 12.979 10.588 12.587C10.98 12.195 11.4507 11.9993 12 12H16C16.2833 12 16.521 12.096 16.713 12.288C16.905 12.48 17.0007 12.7173 17 13C17 13.2833 16.904 13.521 16.712 13.713C16.52 13.905 16.2827 14.0007 16 14H12V26H28V14H24C23.7167 14 23.479 13.904 23.287 13.712C23.095 13.52 22.9993 13.2827 23 13C23 12.7167 23.096 12.479 23.288 12.287C23.48 12.095 23.7173 11.9993 24 12H28C28.55 12 29.021 12.196 29.413 12.588C29.805 12.98 30.0007 13.4507 30 14V26C30 26.55 29.804 27.021 29.412 27.413C29.02 27.805 28.5493 28.0007 28 28H12ZM20 22.975C19.8667 22.975 19.7417 22.954 19.625 22.912C19.5083 22.87 19.4 22.7993 19.3 22.7L15.675 19.075C15.4917 18.8917 15.4 18.6667 15.4 18.4C15.4 18.1333 15.5 17.9 15.7 17.7C15.8833 17.5167 16.1167 17.425 16.4 17.425C16.6833 17.425 16.9167 17.5167 17.1 17.7L19 19.6V13C19 12.7167 19.096 12.479 19.288 12.287C19.48 12.095 19.7173 11.9993 20 12C20.2833 12 20.521 12.096 20.713 12.288C20.905 12.48 21.0007 12.7173 21 13V19.6L22.925 17.675C23.1083 17.4917 23.3333 17.4 23.6 17.4C23.8667 17.4 24.1 17.5 24.3 17.7C24.4833 17.8833 24.575 18.1167 24.575 18.4C24.575 18.6833 24.4833 18.9167 24.3 19.1L20.7 22.7C20.6 22.8 20.4917 22.871 20.375 22.913C20.2583 22.955 20.1333 22.9757 20 22.975Z" fill="#191919"/>
</svg>
