<svg width="120" height="61" viewBox="0 0 120 61" fill="none" xmlns="http://www.w3.org/2000/svg">
<path d="M51.9831 0L97.0019 18.5179H6.96442L51.9831 0Z" fill="black"/>
<rect x="7.20117" y="21.6648" width="89.503" height="6.05159" fill="black"/>
<rect x="17.0654" y="30.7419" width="10.2877" height="30.2579" fill="black"/>
<rect x="46.8389" y="30.7419" width="10.2877" height="30.2579" fill="black"/>
<rect x="76.6133" y="30.7419" width="10.2877" height="30.2579" fill="black"/>
<rect width="82" height="17" rx="8.5" transform="matrix(1 0 0 -1 37 55)" fill="white"/>
<path d="M43.533 42.355H50.54V44.383H50.241C50.2237 44.0797 50.176 43.811 50.098 43.577C50.02 43.343 49.8727 43.161 49.656 43.031C49.4393 42.8923 49.11 42.823 48.668 42.823H47.589V49.7C47.589 49.9947 47.6193 50.2113 47.68 50.35C47.7493 50.4887 47.8707 50.5797 48.044 50.623C48.226 50.6663 48.486 50.6923 48.824 50.701V51H45.574V50.701C45.808 50.6923 45.99 50.6663 46.12 50.623C46.2587 50.5797 46.354 50.4887 46.406 50.35C46.458 50.2113 46.484 49.9947 46.484 49.7V42.823H45.392C44.9587 42.823 44.6337 42.8923 44.417 43.031C44.2003 43.161 44.053 43.343 43.975 43.577C43.897 43.811 43.8493 44.0797 43.832 44.383H43.533V42.355ZM51.9322 51V50.701C52.1662 50.6923 52.3482 50.6663 52.4782 50.623C52.6169 50.5797 52.7122 50.4887 52.7642 50.35C52.8162 50.2113 52.8422 49.9947 52.8422 49.7V43.655C52.8422 43.3517 52.8076 43.135 52.7382 43.005C52.6776 42.8663 52.5606 42.7753 52.3872 42.732C52.2139 42.6887 51.9539 42.6627 51.6072 42.654V42.355H52.8422C53.2669 42.355 53.6136 42.3507 53.8822 42.342C54.1509 42.3247 54.3979 42.3117 54.6232 42.303C54.8572 42.2943 55.1259 42.29 55.4292 42.29C56.3479 42.29 57.0196 42.4503 57.4442 42.771C57.8689 43.083 58.0812 43.4947 58.0812 44.006C58.0812 44.5347 57.9079 44.955 57.5612 45.267C57.2146 45.579 56.7899 45.826 56.2872 46.008V46.034C56.8159 46.06 57.2839 46.164 57.6912 46.346C58.1072 46.5193 58.4366 46.7663 58.6792 47.087C58.9219 47.4077 59.0432 47.7977 59.0432 48.257C59.0432 48.7077 58.9219 49.1453 58.6792 49.57C58.4452 49.986 58.0726 50.3283 57.5612 50.597C57.0586 50.8657 56.3999 51 55.5852 51H51.9322ZM53.9472 46.19C54.0599 46.112 54.1639 46.0643 54.2592 46.047C54.3632 46.021 54.4846 46.0037 54.6232 45.995C54.8832 45.969 55.1432 45.93 55.4032 45.878C55.6719 45.8173 55.9146 45.722 56.1312 45.592C56.3566 45.462 56.5386 45.2843 56.6772 45.059C56.8159 44.825 56.8852 44.5303 56.8852 44.175C56.8852 43.7677 56.7899 43.4643 56.5992 43.265C56.4086 43.0657 56.1702 42.9313 55.8842 42.862C55.5982 42.7927 55.3036 42.758 55.0002 42.758C54.6276 42.758 54.3589 42.8057 54.1942 42.901C54.0296 42.9963 53.9472 43.2477 53.9472 43.655V46.19ZM55.4812 50.532C56.0966 50.532 56.5732 50.4193 56.9112 50.194C57.2579 49.9687 57.5006 49.6913 57.6392 49.362C57.7779 49.024 57.8472 48.6903 57.8472 48.361C57.8472 47.8843 57.7259 47.5073 57.4832 47.23C57.2492 46.944 56.9286 46.7403 56.5212 46.619C56.1226 46.489 55.6719 46.424 55.1692 46.424C54.7446 46.424 54.4326 46.4803 54.2332 46.593C54.0426 46.697 53.9472 46.8963 53.9472 47.191V49.7C53.9472 49.9513 53.9906 50.1377 54.0772 50.259C54.1639 50.3717 54.3156 50.4453 54.5322 50.48C54.7576 50.5147 55.0739 50.532 55.4812 50.532ZM60.6693 51V50.701C60.9033 50.6923 61.0853 50.6663 61.2153 50.623C61.354 50.5797 61.4493 50.4887 61.5013 50.35C61.5533 50.2113 61.5793 49.9947 61.5793 49.7V43.655C61.5793 43.3517 61.5447 43.135 61.4753 43.005C61.4147 42.8663 61.2977 42.7753 61.1243 42.732C60.951 42.6887 60.691 42.6627 60.3443 42.654V42.355H63.5943V42.654C63.3603 42.6627 63.1783 42.6887 63.0483 42.732C62.9183 42.7753 62.823 42.8663 62.7623 43.005C62.7103 43.135 62.6843 43.3517 62.6843 43.655V49.7C62.6843 49.9947 62.7147 50.2113 62.7753 50.35C62.8447 50.4887 62.966 50.5797 63.1393 50.623C63.3213 50.6663 63.5813 50.6923 63.9193 50.701V51H60.6693ZM65.4273 51V50.701C65.6613 50.6923 65.8433 50.6663 65.9733 50.623C66.112 50.5797 66.2073 50.4887 66.2593 50.35C66.3113 50.2113 66.3373 49.9947 66.3373 49.7V43.655C66.3373 43.3517 66.3027 43.135 66.2333 43.005C66.1727 42.8663 66.0557 42.7753 65.8823 42.732C65.709 42.6887 65.449 42.6627 65.1023 42.654V42.355H68.3523V42.654C68.1183 42.6627 67.9363 42.6887 67.8063 42.732C67.6763 42.7753 67.581 42.8663 67.5203 43.005C67.4683 43.135 67.4423 43.3517 67.4423 43.655V49.622L72.3823 42.355H74.1373V42.654C73.9033 42.6627 73.7213 42.6887 73.5913 42.732C73.4613 42.7753 73.366 42.8663 73.3053 43.005C73.2533 43.135 73.2273 43.3517 73.2273 43.655V49.7C73.2273 49.9947 73.2577 50.2113 73.3183 50.35C73.379 50.4887 73.496 50.5797 73.6693 50.623C73.8513 50.6663 74.1113 50.6923 74.4493 50.701V51H71.2123V50.701C71.4463 50.6923 71.6283 50.6663 71.7583 50.623C71.897 50.5797 71.9923 50.4887 72.0443 50.35C72.0963 50.2113 72.1223 49.9947 72.1223 49.7V43.746L67.1823 51H65.4273ZM71.4723 39.69L71.7193 39.807C71.6067 40.4223 71.3597 40.8817 70.9783 41.185C70.597 41.4797 70.1897 41.627 69.7563 41.627C69.3837 41.627 69.0457 41.5057 68.7423 41.263C68.4477 41.0203 68.2657 40.5827 68.1963 39.95C68.3523 39.8807 68.5083 39.833 68.6643 39.807C68.8203 39.781 68.9937 39.7637 69.1843 39.755C69.2017 40.171 69.2883 40.47 69.4443 40.652C69.609 40.8253 69.83 40.912 70.1073 40.912C70.4107 40.912 70.6707 40.808 70.8873 40.6C71.1127 40.392 71.3077 40.0887 71.4723 39.69ZM81.6992 45.8H82.7392C83.9178 45.8 84.8322 45.9993 85.4822 46.398C86.1408 46.788 86.4702 47.3773 86.4702 48.166C86.4702 48.686 86.3445 49.1627 86.0932 49.596C85.8505 50.0207 85.4778 50.363 84.9752 50.623C84.4812 50.8743 83.8485 51 83.0772 51H79.6842V50.701C79.9182 50.6923 80.1002 50.6663 80.2302 50.623C80.3688 50.5797 80.4642 50.4887 80.5162 50.35C80.5682 50.2113 80.5942 49.9947 80.5942 49.7V43.655C80.5942 43.3517 80.5595 43.135 80.4902 43.005C80.4295 42.8663 80.3125 42.7753 80.1392 42.732C79.9658 42.6887 79.7058 42.6627 79.3592 42.654V42.355H85.7942V44.383H85.4952C85.4692 44.097 85.4085 43.837 85.3132 43.603C85.2265 43.369 85.0705 43.1827 84.8452 43.044C84.6285 42.8967 84.3035 42.823 83.8702 42.823H82.2712C82.0892 42.823 81.9462 42.8663 81.8422 42.953C81.7468 43.0397 81.6992 43.2737 81.6992 43.655V45.8ZM82.9732 50.532C83.5452 50.532 84.0002 50.4237 84.3382 50.207C84.6762 49.9817 84.9145 49.7 85.0532 49.362C85.2005 49.0153 85.2742 48.6557 85.2742 48.283C85.2742 47.763 85.1485 47.3557 84.8972 47.061C84.6545 46.7663 84.3338 46.5583 83.9352 46.437C83.5452 46.3157 83.1205 46.255 82.6612 46.255H81.6992V49.7C81.6992 50.0727 81.7902 50.3067 81.9722 50.402C82.1628 50.4887 82.4965 50.532 82.9732 50.532ZM94.1752 49.7C94.2792 50.0033 94.3789 50.2243 94.4742 50.363C94.5695 50.493 94.6822 50.5797 94.8122 50.623C94.9509 50.6577 95.1329 50.6837 95.3582 50.701V51H92.2512V50.701C92.5459 50.6837 92.7625 50.6533 92.9012 50.61C93.0485 50.5667 93.1309 50.4757 93.1482 50.337C93.1655 50.1983 93.1222 49.986 93.0182 49.7L92.2772 47.464C92.2339 47.5073 92.1689 47.5377 92.0822 47.555C91.9955 47.5637 91.9045 47.568 91.8092 47.568H90.1062C89.9155 47.568 89.7725 47.5897 89.6772 47.633C89.5819 47.6763 89.4995 47.7933 89.4302 47.984L88.8192 49.7C88.7065 50.0293 88.7065 50.2763 88.8192 50.441C88.9405 50.597 89.2785 50.6837 89.8332 50.701V51H87.1422V50.701C87.4195 50.6837 87.6362 50.597 87.7922 50.441C87.9569 50.2763 88.0999 50.0293 88.2212 49.7L90.5222 43.382C90.6089 43.1567 90.6912 42.9357 90.7692 42.719C90.8472 42.5023 90.9165 42.2813 90.9772 42.056H91.6142C91.6749 42.2813 91.7399 42.5023 91.8092 42.719C91.8872 42.9357 91.9695 43.1567 92.0562 43.382L94.1752 49.7ZM91.8352 47.1C91.9479 47.1 92.0259 47.087 92.0692 47.061C92.1125 47.0263 92.1125 46.957 92.0692 46.853L91.0032 43.694H90.9772L89.7292 47.139C89.7725 47.1217 89.8245 47.113 89.8852 47.113C89.9459 47.1043 90.0152 47.1 90.0932 47.1H91.8352ZM96.2262 51V50.701C96.4602 50.6923 96.6422 50.6663 96.7722 50.623C96.9108 50.5797 97.0062 50.4887 97.0582 50.35C97.1102 50.2113 97.1362 49.9947 97.1362 49.7V43.655C97.1362 43.3517 97.1015 43.135 97.0322 43.005C96.9715 42.8663 96.8545 42.7753 96.6812 42.732C96.5078 42.6887 96.2478 42.6627 95.9012 42.654V42.355H99.1512V42.654C98.9172 42.6627 98.7352 42.6887 98.6052 42.732C98.4752 42.7753 98.3798 42.8663 98.3192 43.005C98.2672 43.135 98.2412 43.3517 98.2412 43.655V45.93C98.3105 45.878 98.3928 45.8433 98.4882 45.826C98.5922 45.8087 98.7135 45.8 98.8522 45.8H102.284C102.518 45.8 102.683 45.761 102.778 45.683C102.873 45.605 102.921 45.449 102.921 45.215V43.655C102.921 43.3517 102.886 43.135 102.817 43.005C102.756 42.8663 102.639 42.7753 102.466 42.732C102.293 42.6887 102.033 42.6627 101.686 42.654V42.355H104.936V42.654C104.702 42.6627 104.52 42.6887 104.39 42.732C104.26 42.7753 104.165 42.8663 104.104 43.005C104.052 43.135 104.026 43.3517 104.026 43.655V49.7C104.026 49.9947 104.056 50.2113 104.117 50.35C104.178 50.4887 104.295 50.5797 104.468 50.623C104.65 50.6663 104.91 50.6923 105.248 50.701V51H102.011V50.701C102.245 50.6923 102.427 50.6663 102.557 50.623C102.696 50.5797 102.791 50.4887 102.843 50.35C102.895 50.2113 102.921 49.9947 102.921 49.7V46.125C102.852 46.1857 102.765 46.2247 102.661 46.242C102.557 46.2593 102.44 46.268 102.31 46.268H98.8782C98.6442 46.268 98.4795 46.307 98.3842 46.385C98.2888 46.463 98.2412 46.6147 98.2412 46.84V49.7C98.2412 49.9947 98.2715 50.2113 98.3322 50.35C98.4015 50.4887 98.5228 50.5797 98.6962 50.623C98.8695 50.6663 99.1252 50.6923 99.4632 50.701V51H96.2262ZM113.968 51.078C113.466 51.078 113.08 50.9827 112.811 50.792C112.543 50.5927 112.291 50.3457 112.057 50.051L109.366 46.671C109.254 46.5323 109.167 46.437 109.106 46.385C109.046 46.333 108.981 46.307 108.911 46.307C108.842 46.307 108.781 46.333 108.729 46.385C108.677 46.4283 108.651 46.528 108.651 46.684V49.7C108.651 49.9947 108.682 50.2113 108.742 50.35C108.812 50.4887 108.933 50.5797 109.106 50.623C109.28 50.6663 109.535 50.6923 109.873 50.701V51H106.636V50.701C106.87 50.6923 107.052 50.6663 107.182 50.623C107.321 50.5797 107.416 50.4887 107.468 50.35C107.52 50.2113 107.546 49.9947 107.546 49.7V43.655C107.546 43.3517 107.512 43.135 107.442 43.005C107.382 42.8663 107.265 42.7753 107.091 42.732C106.918 42.6887 106.658 42.6627 106.311 42.654V42.355H109.561V42.654C109.327 42.6627 109.145 42.6887 109.015 42.732C108.885 42.7753 108.79 42.8663 108.729 43.005C108.677 43.135 108.651 43.3517 108.651 43.655V45.826H108.677L111.459 43.564C111.667 43.3907 111.802 43.2607 111.862 43.174C111.923 43.0873 111.953 43.0093 111.953 42.94C111.953 42.8533 111.906 42.7883 111.81 42.745C111.715 42.693 111.533 42.6627 111.264 42.654V42.355H113.994V42.654C113.734 42.6713 113.5 42.7363 113.292 42.849C113.084 42.9617 112.846 43.1263 112.577 43.343L110.107 45.358C109.969 45.462 109.969 45.605 110.107 45.787L113.149 49.661C113.383 49.9557 113.574 50.1767 113.721 50.324C113.877 50.4713 114.025 50.571 114.163 50.623C114.311 50.675 114.48 50.701 114.67 50.701V51C114.436 51.052 114.202 51.078 113.968 51.078Z" fill="black"/>
<line x1="90" y1="54.5" x2="119" y2="54.5" stroke="black"/>
<line x1="119.5" y1="55" x2="119.5" y2="38" stroke="black"/>
</svg>
