<svg width="100" height="51" viewBox="0 0 100 51" fill="none" xmlns="http://www.w3.org/2000/svg">
<path d="M43.3193 0L80.8349 15.482H5.80368L43.3193 0Z" fill="white"/>
<rect x="6.00098" y="18.1133" width="74.5858" height="5.05948" fill="white"/>
<rect x="14.2212" y="25.7021" width="8.57308" height="25.2974" fill="white"/>
<rect x="39.0327" y="25.7021" width="8.57308" height="25.2974" fill="white"/>
<rect x="63.8442" y="25.7021" width="8.57308" height="25.2974" fill="white"/>
<rect width="68.3333" height="14.213" rx="7.1065" transform="matrix(1 0 0 -1 30.8335 45.9824)" fill="#333333"/>
<path d="M35.41 35.685H40.8V37.245H40.57C40.5567 37.0116 40.52 36.805 40.46 36.625C40.4 36.445 40.2867 36.305 40.12 36.205C39.9533 36.0983 39.7 36.045 39.36 36.045H38.53V41.335C38.53 41.5616 38.5533 41.7283 38.6 41.835C38.6533 41.9416 38.7467 42.0116 38.88 42.045C39.02 42.0783 39.22 42.0983 39.48 42.105V42.335H36.98V42.105C37.16 42.0983 37.3 42.0783 37.4 42.045C37.5067 42.0116 37.58 41.9416 37.62 41.835C37.66 41.7283 37.68 41.5616 37.68 41.335V36.045H36.84C36.5067 36.045 36.2567 36.0983 36.09 36.205C35.9233 36.305 35.81 36.445 35.75 36.625C35.69 36.805 35.6533 37.0116 35.64 37.245H35.41V35.685ZM41.8709 42.335V42.105C42.0509 42.0983 42.1909 42.0783 42.2909 42.045C42.3976 42.0116 42.4709 41.9416 42.5109 41.835C42.5509 41.7283 42.5709 41.5616 42.5709 41.335V36.685C42.5709 36.4516 42.5443 36.285 42.4909 36.185C42.4443 36.0783 42.3543 36.0083 42.2209 35.975C42.0876 35.9416 41.8876 35.9216 41.6209 35.915V35.685H42.5709C42.8976 35.685 43.1643 35.6816 43.3709 35.675C43.5776 35.6616 43.7676 35.6516 43.9409 35.645C44.1209 35.6383 44.3276 35.635 44.5609 35.635C45.2676 35.635 45.7843 35.7583 46.1109 36.005C46.4376 36.245 46.6009 36.5616 46.6009 36.955C46.6009 37.3616 46.4676 37.685 46.2009 37.925C45.9343 38.165 45.6076 38.355 45.2209 38.495V38.515C45.6276 38.535 45.9876 38.615 46.3009 38.755C46.6209 38.8883 46.8743 39.0783 47.0609 39.325C47.2476 39.5716 47.3409 39.8716 47.3409 40.225C47.3409 40.5716 47.2476 40.9083 47.0609 41.235C46.8809 41.555 46.5943 41.8183 46.2009 42.025C45.8143 42.2316 45.3076 42.335 44.6809 42.335H41.8709ZM43.4209 38.635C43.5076 38.575 43.5876 38.5383 43.6609 38.525C43.7409 38.505 43.8343 38.4916 43.9409 38.485C44.1409 38.465 44.3409 38.435 44.5409 38.395C44.7476 38.3483 44.9343 38.275 45.1009 38.175C45.2743 38.075 45.4143 37.9383 45.5209 37.765C45.6276 37.585 45.6809 37.3583 45.6809 37.085C45.6809 36.7716 45.6076 36.5383 45.4609 36.385C45.3143 36.2316 45.1309 36.1283 44.9109 36.075C44.6909 36.0216 44.4643 35.995 44.2309 35.995C43.9443 35.995 43.7376 36.0316 43.6109 36.105C43.4843 36.1783 43.4209 36.3716 43.4209 36.685V38.635ZM44.6009 41.975C45.0743 41.975 45.4409 41.8883 45.7009 41.715C45.9676 41.5416 46.1543 41.3283 46.2609 41.075C46.3676 40.815 46.4209 40.5583 46.4209 40.305C46.4209 39.9383 46.3276 39.6483 46.1409 39.435C45.9609 39.215 45.7143 39.0583 45.4009 38.965C45.0943 38.865 44.7476 38.815 44.3609 38.815C44.0343 38.815 43.7943 38.8583 43.6409 38.945C43.4943 39.025 43.4209 39.1783 43.4209 39.405V41.335C43.4209 41.5283 43.4543 41.6716 43.5209 41.765C43.5876 41.8516 43.7043 41.9083 43.8709 41.935C44.0443 41.9616 44.2876 41.975 44.6009 41.975ZM48.5918 42.335V42.105C48.7718 42.0983 48.9118 42.0783 49.0118 42.045C49.1185 42.0116 49.1918 41.9416 49.2318 41.835C49.2718 41.7283 49.2918 41.5616 49.2918 41.335V36.685C49.2918 36.4516 49.2651 36.285 49.2118 36.185C49.1651 36.0783 49.0751 36.0083 48.9418 35.975C48.8085 35.9416 48.6085 35.9216 48.3418 35.915V35.685H50.8418V35.915C50.6618 35.9216 50.5218 35.9416 50.4218 35.975C50.3218 36.0083 50.2485 36.0783 50.2018 36.185C50.1618 36.285 50.1418 36.4516 50.1418 36.685V41.335C50.1418 41.5616 50.1651 41.7283 50.2118 41.835C50.2651 41.9416 50.3585 42.0116 50.4918 42.045C50.6318 42.0783 50.8318 42.0983 51.0918 42.105V42.335H48.5918ZM52.2518 42.335V42.105C52.4318 42.0983 52.5718 42.0783 52.6718 42.045C52.7785 42.0116 52.8518 41.9416 52.8918 41.835C52.9318 41.7283 52.9518 41.5616 52.9518 41.335V36.685C52.9518 36.4516 52.9251 36.285 52.8718 36.185C52.8251 36.0783 52.7351 36.0083 52.6018 35.975C52.4685 35.9416 52.2685 35.9216 52.0018 35.915V35.685H54.5018V35.915C54.3218 35.9216 54.1818 35.9416 54.0818 35.975C53.9818 36.0083 53.9085 36.0783 53.8618 36.185C53.8218 36.285 53.8018 36.4516 53.8018 36.685V41.275L57.6018 35.685H58.9518V35.915C58.7718 35.9216 58.6318 35.9416 58.5318 35.975C58.4318 36.0083 58.3585 36.0783 58.3118 36.185C58.2718 36.285 58.2518 36.4516 58.2518 36.685V41.335C58.2518 41.5616 58.2751 41.7283 58.3218 41.835C58.3685 41.9416 58.4585 42.0116 58.5918 42.045C58.7318 42.0783 58.9318 42.0983 59.1918 42.105V42.335H56.7018V42.105C56.8818 42.0983 57.0218 42.0783 57.1218 42.045C57.2285 42.0116 57.3018 41.9416 57.3418 41.835C57.3818 41.7283 57.4018 41.5616 57.4018 41.335V36.755L53.6018 42.335H52.2518ZM56.9018 33.635L57.0918 33.725C57.0051 34.1983 56.8151 34.5516 56.5218 34.785C56.2285 35.0116 55.9151 35.125 55.5818 35.125C55.2951 35.125 55.0351 35.0316 54.8018 34.845C54.5751 34.6583 54.4351 34.3216 54.3818 33.835C54.5018 33.7816 54.6218 33.745 54.7418 33.725C54.8618 33.705 54.9951 33.6916 55.1418 33.685C55.1551 34.005 55.2218 34.235 55.3418 34.375C55.4685 34.5083 55.6385 34.575 55.8518 34.575C56.0851 34.575 56.2851 34.495 56.4518 34.335C56.6251 34.175 56.7751 33.9416 56.9018 33.635ZM64.7686 38.335H65.5686C66.4753 38.335 67.1786 38.4883 67.6786 38.795C68.1853 39.095 68.4386 39.5483 68.4386 40.155C68.4386 40.555 68.3419 40.9216 68.1486 41.255C67.9619 41.5816 67.6753 41.845 67.2886 42.045C66.9086 42.2383 66.4219 42.335 65.8286 42.335H63.2186V42.105C63.3986 42.0983 63.5386 42.0783 63.6386 42.045C63.7453 42.0116 63.8186 41.9416 63.8586 41.835C63.8986 41.7283 63.9186 41.5616 63.9186 41.335V36.685C63.9186 36.4516 63.8919 36.285 63.8386 36.185C63.7919 36.0783 63.7019 36.0083 63.5686 35.975C63.4353 35.9416 63.2353 35.9216 62.9686 35.915V35.685H67.9186V37.245H67.6886C67.6686 37.025 67.6219 36.825 67.5486 36.645C67.4819 36.465 67.3619 36.3216 67.1886 36.215C67.0219 36.1016 66.7719 36.045 66.4386 36.045H65.2086C65.0686 36.045 64.9586 36.0783 64.8786 36.145C64.8053 36.2116 64.7686 36.3916 64.7686 36.685V38.335ZM65.7486 41.975C66.1886 41.975 66.5386 41.8916 66.7986 41.725C67.0586 41.5516 67.2419 41.335 67.3486 41.075C67.4619 40.8083 67.5186 40.5316 67.5186 40.245C67.5186 39.845 67.4219 39.5316 67.2286 39.305C67.0419 39.0783 66.7953 38.9183 66.4886 38.825C66.1886 38.7316 65.8619 38.685 65.5086 38.685H64.7686V41.335C64.7686 41.6216 64.8386 41.8016 64.9786 41.875C65.1253 41.9416 65.3819 41.975 65.7486 41.975ZM74.3655 41.335C74.4455 41.5683 74.5222 41.7383 74.5955 41.845C74.6689 41.945 74.7555 42.0116 74.8555 42.045C74.9622 42.0716 75.1022 42.0916 75.2755 42.105V42.335H72.8855V42.105C73.1122 42.0916 73.2789 42.0683 73.3855 42.035C73.4989 42.0016 73.5622 41.9316 73.5755 41.825C73.5889 41.7183 73.5555 41.555 73.4755 41.335L72.9055 39.615C72.8722 39.6483 72.8222 39.6716 72.7555 39.685C72.6889 39.6916 72.6189 39.695 72.5455 39.695H71.2355C71.0889 39.695 70.9789 39.7116 70.9055 39.745C70.8322 39.7783 70.7689 39.8683 70.7155 40.015L70.2455 41.335C70.1589 41.5883 70.1589 41.7783 70.2455 41.905C70.3389 42.025 70.5989 42.0916 71.0255 42.105V42.335H68.9555V42.105C69.1689 42.0916 69.3355 42.025 69.4555 41.905C69.5822 41.7783 69.6922 41.5883 69.7855 41.335L71.5555 36.475C71.6222 36.3016 71.6855 36.1316 71.7455 35.965C71.8055 35.7983 71.8589 35.6283 71.9055 35.455H72.3955C72.4422 35.6283 72.4922 35.7983 72.5455 35.965C72.6055 36.1316 72.6689 36.3016 72.7355 36.475L74.3655 41.335ZM72.5655 39.335C72.6522 39.335 72.7122 39.325 72.7455 39.305C72.7789 39.2783 72.7789 39.225 72.7455 39.145L71.9255 36.715H71.9055L70.9455 39.365C70.9789 39.3516 71.0189 39.345 71.0655 39.345C71.1122 39.3383 71.1655 39.335 71.2255 39.335H72.5655ZM75.9432 42.335V42.105C76.1232 42.0983 76.2632 42.0783 76.3632 42.045C76.4699 42.0116 76.5432 41.9416 76.5832 41.835C76.6232 41.7283 76.6432 41.5616 76.6432 41.335V36.685C76.6432 36.4516 76.6165 36.285 76.5632 36.185C76.5165 36.0783 76.4265 36.0083 76.2932 35.975C76.1599 35.9416 75.9599 35.9216 75.6932 35.915V35.685H78.1932V35.915C78.0132 35.9216 77.8732 35.9416 77.7732 35.975C77.6732 36.0083 77.5999 36.0783 77.5532 36.185C77.5132 36.285 77.4932 36.4516 77.4932 36.685V38.435C77.5465 38.395 77.6099 38.3683 77.6832 38.355C77.7632 38.3416 77.8565 38.335 77.9632 38.335H80.6032C80.7832 38.335 80.9099 38.305 80.9832 38.245C81.0565 38.185 81.0932 38.065 81.0932 37.885V36.685C81.0932 36.4516 81.0665 36.285 81.0132 36.185C80.9665 36.0783 80.8765 36.0083 80.7432 35.975C80.6099 35.9416 80.4099 35.9216 80.1432 35.915V35.685H82.6432V35.915C82.4632 35.9216 82.3232 35.9416 82.2232 35.975C82.1232 36.0083 82.0499 36.0783 82.0032 36.185C81.9632 36.285 81.9432 36.4516 81.9432 36.685V41.335C81.9432 41.5616 81.9665 41.7283 82.0132 41.835C82.0599 41.9416 82.1499 42.0116 82.2832 42.045C82.4232 42.0783 82.6232 42.0983 82.8832 42.105V42.335H80.3932V42.105C80.5732 42.0983 80.7132 42.0783 80.8132 42.045C80.9199 42.0116 80.9932 41.9416 81.0332 41.835C81.0732 41.7283 81.0932 41.5616 81.0932 41.335V38.585C81.0399 38.6316 80.9732 38.6616 80.8932 38.675C80.8132 38.6883 80.7232 38.695 80.6232 38.695H77.9832C77.8032 38.695 77.6765 38.725 77.6032 38.785C77.5299 38.845 77.4932 38.9616 77.4932 39.135V41.335C77.4932 41.5616 77.5165 41.7283 77.5632 41.835C77.6165 41.9416 77.7099 42.0116 77.8432 42.045C77.9765 42.0783 78.1732 42.0983 78.4332 42.105V42.335H75.9432ZM89.591 42.395C89.2043 42.395 88.9077 42.3216 88.701 42.175C88.4943 42.0216 88.301 41.8316 88.121 41.605L86.051 39.005C85.9643 38.8983 85.8977 38.825 85.851 38.785C85.8043 38.745 85.7543 38.725 85.701 38.725C85.6477 38.725 85.601 38.745 85.561 38.785C85.521 38.8183 85.501 38.895 85.501 39.015V41.335C85.501 41.5616 85.5243 41.7283 85.571 41.835C85.6243 41.9416 85.7177 42.0116 85.851 42.045C85.9843 42.0783 86.181 42.0983 86.441 42.105V42.335H83.951V42.105C84.131 42.0983 84.271 42.0783 84.371 42.045C84.4777 42.0116 84.551 41.9416 84.591 41.835C84.631 41.7283 84.651 41.5616 84.651 41.335V36.685C84.651 36.4516 84.6243 36.285 84.571 36.185C84.5243 36.0783 84.4343 36.0083 84.301 35.975C84.1677 35.9416 83.9677 35.9216 83.701 35.915V35.685H86.201V35.915C86.021 35.9216 85.881 35.9416 85.781 35.975C85.681 36.0083 85.6077 36.0783 85.561 36.185C85.521 36.285 85.501 36.4516 85.501 36.685V38.355H85.521L87.661 36.615C87.821 36.4816 87.9243 36.3816 87.971 36.315C88.0177 36.2483 88.041 36.1883 88.041 36.135C88.041 36.0683 88.0043 36.0183 87.931 35.985C87.8577 35.945 87.7177 35.9216 87.511 35.915V35.685H89.611V35.915C89.411 35.9283 89.231 35.9783 89.071 36.065C88.911 36.1516 88.7277 36.2783 88.521 36.445L86.621 37.995C86.5143 38.075 86.5143 38.185 86.621 38.325L88.961 41.305C89.141 41.5316 89.2877 41.7016 89.401 41.815C89.521 41.9283 89.6343 42.005 89.741 42.045C89.8543 42.085 89.9843 42.105 90.131 42.105V42.335C89.951 42.375 89.771 42.395 89.591 42.395Z" fill="white"/>
<line x1="75" y1="45.4824" x2="99.1667" y2="45.4824" stroke="white"/>
<line x1="99.5" y1="45.9824" x2="99.5" y2="31.7694" stroke="white"/>
</svg>
