<svg width="56" height="56" viewBox="0 0 56 56" fill="none" xmlns="http://www.w3.org/2000/svg">
<path d="M24.0917 10.073C25.0857 5.97567 30.9143 5.97567 31.9083 10.073C32.0575 10.6885 32.3498 11.2602 32.7617 11.7413C33.1735 12.2225 33.6931 12.5997 34.2782 12.8421C34.8633 13.0845 35.4974 13.1853 36.1288 13.1364C36.7603 13.0874 37.3712 12.89 37.912 12.5603C41.5123 10.367 45.6353 14.4877 43.442 18.0903C43.1128 18.6309 42.9157 19.2415 42.8669 19.8725C42.818 20.5035 42.9188 21.1371 43.1609 21.7219C43.403 22.3066 43.7797 22.826 44.2604 23.2378C44.741 23.6496 45.312 23.9421 45.927 24.0917C50.0243 25.0857 50.0243 30.9143 45.927 31.9083C45.3115 32.0575 44.7398 32.3498 44.2587 32.7617C43.7775 33.1735 43.4003 33.6931 43.1579 34.2782C42.9155 34.8633 42.8147 35.4974 42.8636 36.1288C42.9126 36.7603 43.11 37.3712 43.4397 37.912C45.633 41.5123 41.5123 45.6353 37.9097 43.442C37.3691 43.1128 36.7585 42.9157 36.1275 42.8669C35.4965 42.818 34.8629 42.9188 34.2781 43.1609C33.6934 43.403 33.174 43.7797 32.7622 44.2604C32.3504 44.741 32.0579 45.312 31.9083 45.927C30.9143 50.0243 25.0857 50.0243 24.0917 45.927C23.9425 45.3115 23.6502 44.7398 23.2383 44.2587C22.8265 43.7775 22.3069 43.4003 21.7218 43.1579C21.1367 42.9155 20.5026 42.8147 19.8712 42.8636C19.2397 42.9126 18.6288 43.11 18.088 43.4397C14.4877 45.633 10.3647 41.5123 12.558 37.9097C12.8872 37.3691 13.0843 36.7585 13.1331 36.1275C13.182 35.4965 13.0812 34.8629 12.8391 34.2781C12.597 33.6934 12.2203 33.174 11.7396 32.7622C11.259 32.3504 10.688 32.0579 10.073 31.9083C5.97567 30.9143 5.97567 25.0857 10.073 24.0917C10.6885 23.9425 11.2602 23.6502 11.7413 23.2383C12.2225 22.8265 12.5997 22.3069 12.8421 21.7218C13.0845 21.1367 13.1853 20.5026 13.1364 19.8712C13.0874 19.2397 12.89 18.6288 12.5603 18.088C10.367 14.4877 14.4877 10.3647 18.0903 12.558C20.4237 13.9767 23.4477 12.7213 24.0917 10.073Z" stroke="white" stroke-width="4" stroke-linecap="round" stroke-linejoin="round"/>
<path d="M21 28C21 29.8565 21.7375 31.637 23.0503 32.9497C24.363 34.2625 26.1435 35 28 35C29.8565 35 31.637 34.2625 32.9497 32.9497C34.2625 31.637 35 29.8565 35 28C35 26.1435 34.2625 24.363 32.9497 23.0503C31.637 21.7375 29.8565 21 28 21C26.1435 21 24.363 21.7375 23.0503 23.0503C21.7375 24.363 21 26.1435 21 28Z" stroke="white" stroke-width="4" stroke-linecap="round" stroke-linejoin="round"/>
</svg>
