<svg width="10" height="18" viewBox="0 0 10 18" fill="none" xmlns="http://www.w3.org/2000/svg">
<path d="M5.02508 18C4.74175 18 4.50408 17.904 4.31208 17.712C4.12008 17.52 4.02441 17.2827 4.02508 17V15.85C3.27508 15.6833 2.61675 15.3917 2.05008 14.975C1.48341 14.5583 1.02508 13.975 0.675079 13.225C0.558413 12.9917 0.554412 12.7457 0.663079 12.487C0.771746 12.2283 0.967412 12.041 1.25008 11.925C1.48341 11.825 1.72508 11.8293 1.97508 11.938C2.22508 12.0467 2.41675 12.2257 2.55008 12.475C2.83341 12.975 3.19175 13.354 3.62508 13.612C4.05841 13.87 4.59175 13.9993 5.22508 14C5.90841 14 6.48741 13.8457 6.96208 13.537C7.43675 13.2283 7.67441 12.7493 7.67508 12.1C7.67508 11.5167 7.49175 11.0543 7.12508 10.713C6.75841 10.3717 5.90841 9.984 4.57508 9.55C3.14175 9.1 2.15841 8.56234 1.62508 7.937C1.09175 7.31167 0.825079 6.54934 0.825079 5.65C0.825079 4.56667 1.17508 3.725 1.87508 3.125C2.57508 2.525 3.29175 2.18334 4.02508 2.1V1C4.02508 0.71667 4.12108 0.479003 4.31308 0.287003C4.50508 0.0950034 4.74208 -0.000663206 5.02408 3.46021e-06C5.30741 3.46021e-06 5.54508 0.0960036 5.73708 0.288004C5.92908 0.480004 6.02475 0.717337 6.02408 1V2.1C6.65741 2.2 7.20741 2.40434 7.67408 2.713C8.14075 3.02167 8.52408 3.40067 8.82408 3.85C8.97408 4.06667 9.00341 4.30834 8.91208 4.575C8.82075 4.84167 8.63308 5.03334 8.34908 5.15C8.11575 5.25 7.87408 5.25434 7.62408 5.163C7.37408 5.07167 7.14075 4.909 6.92408 4.675C6.70741 4.44167 6.45308 4.26267 6.16108 4.138C5.86908 4.01334 5.50675 3.95067 5.07408 3.95C4.34075 3.95 3.78241 4.11267 3.39908 4.438C3.01575 4.76334 2.82441 5.16734 2.82508 5.65C2.82508 6.2 3.07508 6.63334 3.57508 6.95C4.07508 7.26667 4.94175 7.6 6.17508 7.95C7.32508 8.28334 8.19608 8.81267 8.78808 9.538C9.38008 10.2633 9.67575 11.1007 9.67508 12.05C9.67508 13.2333 9.32508 14.1333 8.62508 14.75C7.92508 15.3667 7.05841 15.75 6.02508 15.9V17C6.02508 17.2833 5.92908 17.521 5.73708 17.713C5.54508 17.905 5.30775 18.0007 5.02508 18Z" fill="#333333"/>
</svg>
