<svg width="24" height="24" viewBox="0 0 24 24" fill="none" xmlns="http://www.w3.org/2000/svg">
<path d="M20.8484 13.2663C20.8484 12.9045 20.969 12.5427 20.969 12.0603C20.969 11.5779 20.969 11.2161 20.8484 10.8543L23.3811 8.804C23.6223 8.5628 23.6223 8.32159 23.5017 8.08039L21.0896 3.85929C20.969 3.73869 20.7279 3.61808 20.366 3.73869L17.3509 4.94471C16.7479 4.4623 16.0243 4.10049 15.3007 3.73869L14.8183 0.603014C14.9389 0.241206 14.577 0 14.3359 0H9.51175C9.2705 0 8.90874 0.241206 8.90874 0.482411L8.42633 3.73869C7.70271 3.97989 7.0997 4.4623 6.37608 4.94471L3.48161 3.73869C3.11981 3.61808 2.8786 3.73869 2.63735 3.97989L0.225292 8.20099C0.104689 8.32159 0.225292 8.6834 0.466497 8.92461L2.99916 10.8543C2.99916 11.2161 2.87855 11.5779 2.87855 12.0603C2.87855 12.5427 2.87855 12.9045 2.99916 13.2663L0.466497 15.3166C0.225292 15.5578 0.225292 15.799 0.345894 16.0402L2.75795 20.2613C2.87855 20.3819 3.11971 20.5025 3.48157 20.3819L6.49664 19.1759C7.09965 19.6583 7.82327 20.0201 8.54688 20.3819L9.02929 23.5176C9.02929 23.7588 9.2705 24 9.63231 24H14.4564C14.6977 24 15.0594 23.7587 15.0594 23.5176L15.5418 20.3819C16.2655 20.0201 16.9891 19.6583 17.5921 19.1759L20.6072 20.3819C20.8484 20.5025 21.2102 20.3819 21.3308 20.1407L23.7429 15.9196C23.8635 15.6784 23.8635 15.3166 23.6222 15.196L20.8484 13.2663ZM11.9238 16.2814C9.63236 16.2814 7.70271 14.3517 7.70271 12.0603C7.70271 9.76883 9.63236 7.83918 11.9238 7.83918C14.2153 7.83918 16.1449 9.76883 16.1449 12.0603C16.1449 14.3517 14.2153 16.2814 11.9238 16.2814Z" fill="#656565"/>
</svg>
