<svg width="24" height="22" viewBox="0 0 24 22" fill="none" xmlns="http://www.w3.org/2000/svg">
<path d="M9.68482 11.523L7.32304 13.8517C5.74504 13.8165 3.56101 14.3753 2.61825 17.463C1.89752 19.0973 0 19.0148 0 19.0148C3.93979 23.3858 8.58308 20.9086 9.64357 19.8345C10.5751 18.8903 10.7093 17.736 10.6096 16.8127L12.8071 14.646L9.68482 11.523ZM8.59579 18.8003C7.85781 19.485 4.55926 21.0113 2.61825 19.5315C2.61825 19.5315 3.294 19.0043 3.80551 17.946C5.02725 14.7007 8.07227 15.1807 8.07227 15.1807L9.11931 16.2149C9.12982 16.2247 9.90156 17.5898 8.59579 18.8003ZM23.3492 1.13162C22.4814 0.275136 21.0744 0.275136 20.2074 1.13162L10.7521 10.4692L13.8744 13.5915L23.3492 4.23367C24.2169 3.37718 24.2169 1.98815 23.3492 1.13162Z" fill="#656565"/>
</svg>
