<svg width="22" height="18" viewBox="0 0 22 18" fill="none" xmlns="http://www.w3.org/2000/svg">
<path d="M9 1C5.229 1 3.343 1 2.172 2.172C1 3.343 1 5.229 1 9C1 12.771 1 14.657 2.172 15.828C3.343 17 5.229 17 9 17H10.5M13 1C16.771 1 18.657 1 19.828 2.172C20.892 3.235 20.99 4.886 21 8" stroke="#333333" stroke-width="2" stroke-linecap="round"/>
<path d="M14.5 11V17M14.5 17L16.5 15M14.5 17L12.5 15M19 17V11M19 11L21 13M19 11L17 13" stroke="#333333" stroke-width="2" stroke-linecap="round" stroke-linejoin="round"/>
<path d="M9 13H5M1 7H6M21 7H10" stroke="#333333" stroke-width="2" stroke-linecap="round"/>
</svg>
